<svg xmlns="http://www.w3.org/2000/svg" x="0px" y="0px"
width="64" height="64"
viewBox="0 0 172 172"
style=" fill:#000000;"><g fill="none" fill-rule="nonzero" stroke="none" stroke-width="1" stroke-linecap="butt" stroke-linejoin="miter" stroke-miterlimit="10" stroke-dasharray="" stroke-dashoffset="0" font-family="none" font-weight="none" font-size="none" text-anchor="none" style="mix-blend-mode: normal"><path d="M0,172v-172h172v172z" fill="none"></path><g id="Layer_1"><path d="M33.73853,33.7417c-28.86168,28.86269 -28.86087,75.65754 0.00182,104.51922c28.86269,28.86168 75.65754,28.86087 104.51922,-0.00182c28.86168,-28.86269 28.86087,-75.65754 -0.00182,-104.51922c-28.86269,-28.86168 -75.65754,-28.86087 -104.51922,0.00182z" fill="#333333"></path><path d="M86,163.9375c-20.02187,0 -39.90938,-7.65938 -55.09375,-22.84375c-14.78125,-14.64688 -22.84375,-34.26562 -22.84375,-55.09375c0,-20.82812 8.0625,-40.44687 22.84375,-55.09375v0v0c30.36875,-30.36875 79.81875,-30.36875 110.1875,0c14.78125,14.78125 22.84375,34.26563 22.84375,55.09375c0,20.82813 -8.0625,40.44687 -22.84375,55.09375c-15.18438,15.18437 -35.07187,22.84375 -55.09375,22.84375zM86,16.125c-17.87188,0 -35.74375,6.85313 -49.45,20.425v0c-13.16875,13.30313 -20.425,30.77188 -20.425,49.45c0,18.67813 7.25625,36.14688 20.425,49.45c27.27813,27.27813 71.62188,27.27813 98.76563,0c13.30312,-13.30312 20.55937,-30.77187 20.55937,-49.45c0,-18.67813 -7.25625,-36.14687 -20.425,-49.45c-13.70625,-13.57188 -31.57812,-20.425 -49.45,-20.425zM33.72813,33.72813v0z" fill="#000000"></path><path d="M110.1875,81.96875h-41.3875l13.30313,-13.30312c1.6125,-1.6125 1.6125,-4.16563 0,-5.64375c-1.6125,-1.6125 -4.16563,-1.6125 -5.64375,0l-20.15625,20.15625c-1.6125,1.6125 -1.6125,4.16563 0,5.64375l20.15625,20.15625c0.80625,0.80625 1.88125,1.20938 2.82188,1.20938c0.94062,0 2.01563,-0.40313 2.82188,-1.20938c1.6125,-1.6125 1.6125,-4.16562 0,-5.64375l-13.30313,-13.30312h41.3875c2.28437,0 4.03125,-1.74688 4.03125,-4.03125c0,-2.28437 -1.74688,-4.03125 -4.03125,-4.03125z" fill="#ffffff"></path></g></g></svg>